<mxfile host="app.diagrams.net" modified="2023-04-11T13:52:25.296Z" agent="Mozilla/5.0 (Windows NT 10.0; Win64; x64) AppleWebKit/537.36 (KHTML, like Gecko) Chrome/112.0.0.0 Safari/537.36 Edg/112.0.1722.34" etag="2kGSgb3jJb3nMV5oSb0u" version="21.1.5" type="github" pages="4">
  <diagram name="第 1 页" id="juWUoHmqVazksuG_CoBL">
    <mxGraphModel dx="1540" dy="914" grid="1" gridSize="10" guides="1" tooltips="1" connect="1" arrows="1" fold="1" page="1" pageScale="1" pageWidth="1169" pageHeight="1654" math="0" shadow="0">
      <root>
        <mxCell id="0" />
        <mxCell id="1" parent="0" />
        <mxCell id="0WwnzeJDcboaGbobXKBc-2" value="OpenShop" style="swimlane;whiteSpace=wrap;html=1;startSize=40;" parent="1" vertex="1">
          <mxGeometry x="329" y="180" width="840" height="1305" as="geometry">
            <mxRectangle x="270" y="100" width="110" height="30" as="alternateBounds" />
          </mxGeometry>
        </mxCell>
        <mxCell id="0WwnzeJDcboaGbobXKBc-35" value="輸入用戶名稱與密碼" style="ellipse;whiteSpace=wrap;html=1;" parent="0WwnzeJDcboaGbobXKBc-2" vertex="1">
          <mxGeometry x="60" y="100" width="140" height="60" as="geometry" />
        </mxCell>
        <mxCell id="0WwnzeJDcboaGbobXKBc-36" value="申辦帳號" style="ellipse;whiteSpace=wrap;html=1;" parent="0WwnzeJDcboaGbobXKBc-2" vertex="1">
          <mxGeometry x="92.5" y="260" width="75" height="60" as="geometry" />
        </mxCell>
        <mxCell id="0WwnzeJDcboaGbobXKBc-34" style="edgeStyle=orthogonalEdgeStyle;rounded=0;orthogonalLoop=1;jettySize=auto;html=1;exitX=0.5;exitY=1;exitDx=0;exitDy=0;entryX=0.5;entryY=0;entryDx=0;entryDy=0;endArrow=none;endFill=0;" parent="0WwnzeJDcboaGbobXKBc-2" source="0WwnzeJDcboaGbobXKBc-35" target="0WwnzeJDcboaGbobXKBc-36" edge="1">
          <mxGeometry relative="1" as="geometry" />
        </mxCell>
        <mxCell id="0WwnzeJDcboaGbobXKBc-79" style="edgeStyle=orthogonalEdgeStyle;rounded=0;orthogonalLoop=1;jettySize=auto;html=1;exitX=0;exitY=0.5;exitDx=0;exitDy=0;entryX=1;entryY=0.5;entryDx=0;entryDy=0;dashed=1;" parent="0WwnzeJDcboaGbobXKBc-2" source="0WwnzeJDcboaGbobXKBc-38" target="0WwnzeJDcboaGbobXKBc-35" edge="1">
          <mxGeometry relative="1" as="geometry" />
        </mxCell>
        <mxCell id="0WwnzeJDcboaGbobXKBc-38" value="訪客模式" style="ellipse;whiteSpace=wrap;html=1;" parent="0WwnzeJDcboaGbobXKBc-2" vertex="1">
          <mxGeometry x="352.5" y="100" width="75" height="60" as="geometry" />
        </mxCell>
        <mxCell id="0WwnzeJDcboaGbobXKBc-39" style="edgeStyle=orthogonalEdgeStyle;rounded=0;orthogonalLoop=1;jettySize=auto;html=1;entryX=0.5;entryY=1;entryDx=0;entryDy=0;endArrow=classic;endFill=1;dashed=1;" parent="0WwnzeJDcboaGbobXKBc-2" source="0WwnzeJDcboaGbobXKBc-40" target="0WwnzeJDcboaGbobXKBc-36" edge="1">
          <mxGeometry relative="1" as="geometry" />
        </mxCell>
        <mxCell id="0WwnzeJDcboaGbobXKBc-78" style="edgeStyle=orthogonalEdgeStyle;rounded=0;orthogonalLoop=1;jettySize=auto;html=1;entryX=0;entryY=0.5;entryDx=0;entryDy=0;endArrow=none;endFill=0;exitX=1;exitY=1;exitDx=0;exitDy=0;" parent="0WwnzeJDcboaGbobXKBc-2" source="0WwnzeJDcboaGbobXKBc-35" target="0WwnzeJDcboaGbobXKBc-70" edge="1">
          <mxGeometry relative="1" as="geometry">
            <Array as="points">
              <mxPoint x="180" y="207" />
              <mxPoint x="400" y="207" />
            </Array>
          </mxGeometry>
        </mxCell>
        <mxCell id="0WwnzeJDcboaGbobXKBc-40" value="使用指南" style="ellipse;whiteSpace=wrap;html=1;" parent="0WwnzeJDcboaGbobXKBc-2" vertex="1">
          <mxGeometry x="300" y="320" width="75" height="50" as="geometry" />
        </mxCell>
        <mxCell id="0WwnzeJDcboaGbobXKBc-41" value="&amp;lt;&amp;lt; extends &amp;gt;&amp;gt;" style="text;html=1;strokeColor=none;fillColor=none;align=center;verticalAlign=middle;whiteSpace=wrap;rounded=0;" parent="0WwnzeJDcboaGbobXKBc-2" vertex="1">
          <mxGeometry x="235" y="87" width="90" height="40" as="geometry" />
        </mxCell>
        <mxCell id="0WwnzeJDcboaGbobXKBc-42" value="&amp;lt;&amp;lt; extends &amp;gt;&amp;gt;" style="text;html=1;strokeColor=none;fillColor=none;align=center;verticalAlign=middle;whiteSpace=wrap;rounded=0;rotation=0;" parent="0WwnzeJDcboaGbobXKBc-2" vertex="1">
          <mxGeometry x="190" y="310" width="90" height="30" as="geometry" />
        </mxCell>
        <mxCell id="x02498Z_Y9Cc4W6pzpDd-1" style="edgeStyle=orthogonalEdgeStyle;rounded=0;orthogonalLoop=1;jettySize=auto;html=1;entryX=0;entryY=0.5;entryDx=0;entryDy=0;endArrow=none;endFill=0;" parent="0WwnzeJDcboaGbobXKBc-2" source="0WwnzeJDcboaGbobXKBc-70" target="0WwnzeJDcboaGbobXKBc-77" edge="1">
          <mxGeometry relative="1" as="geometry" />
        </mxCell>
        <mxCell id="0WwnzeJDcboaGbobXKBc-70" value="&lt;span style=&quot;font-size: 12px;&quot;&gt;敘述想看的書本內容&lt;/span&gt;" style="ellipse;whiteSpace=wrap;html=1;fontSize=14;" parent="0WwnzeJDcboaGbobXKBc-2" vertex="1">
          <mxGeometry x="340" y="180" width="160" height="60" as="geometry" />
        </mxCell>
        <mxCell id="0WwnzeJDcboaGbobXKBc-71" style="edgeStyle=orthogonalEdgeStyle;rounded=0;orthogonalLoop=1;jettySize=auto;html=1;exitX=0.5;exitY=1;exitDx=0;exitDy=0;fontSize=14;endArrow=none;endFill=0;" parent="0WwnzeJDcboaGbobXKBc-2" edge="1">
          <mxGeometry relative="1" as="geometry">
            <mxPoint x="660" y="315" as="sourcePoint" />
          </mxGeometry>
        </mxCell>
        <mxCell id="0WwnzeJDcboaGbobXKBc-73" style="edgeStyle=orthogonalEdgeStyle;rounded=0;orthogonalLoop=1;jettySize=auto;html=1;exitX=0.5;exitY=1;exitDx=0;exitDy=0;entryX=0.5;entryY=0;entryDx=0;entryDy=0;fontSize=14;endArrow=none;endFill=0;" parent="0WwnzeJDcboaGbobXKBc-2" edge="1">
          <mxGeometry relative="1" as="geometry">
            <mxPoint x="660" y="570" as="targetPoint" />
          </mxGeometry>
        </mxCell>
        <mxCell id="0WwnzeJDcboaGbobXKBc-77" value="&lt;span style=&quot;font-size: 12px;&quot;&gt;回答結果&lt;/span&gt;" style="ellipse;whiteSpace=wrap;html=1;fontSize=14;" parent="0WwnzeJDcboaGbobXKBc-2" vertex="1">
          <mxGeometry x="584.5" y="295" width="130" height="60" as="geometry" />
        </mxCell>
        <mxCell id="0WwnzeJDcboaGbobXKBc-125" style="edgeStyle=orthogonalEdgeStyle;rounded=0;orthogonalLoop=1;jettySize=auto;html=1;endArrow=none;endFill=0;" parent="0WwnzeJDcboaGbobXKBc-2" source="0WwnzeJDcboaGbobXKBc-84" target="0WwnzeJDcboaGbobXKBc-89" edge="1">
          <mxGeometry relative="1" as="geometry" />
        </mxCell>
        <mxCell id="0WwnzeJDcboaGbobXKBc-84" value="將書本加入購物車" style="ellipse;whiteSpace=wrap;html=1;" parent="0WwnzeJDcboaGbobXKBc-2" vertex="1">
          <mxGeometry x="321" y="450" width="165" height="60" as="geometry" />
        </mxCell>
        <mxCell id="0WwnzeJDcboaGbobXKBc-86" value="實體書" style="ellipse;whiteSpace=wrap;html=1;" parent="0WwnzeJDcboaGbobXKBc-2" vertex="1">
          <mxGeometry x="675.5" y="597.5" width="80" height="67.5" as="geometry" />
        </mxCell>
        <mxCell id="0WwnzeJDcboaGbobXKBc-83" style="edgeStyle=orthogonalEdgeStyle;rounded=0;orthogonalLoop=1;jettySize=auto;html=1;exitX=1;exitY=0.5;exitDx=0;exitDy=0;entryX=0.5;entryY=0;entryDx=0;entryDy=0;endArrow=none;endFill=0;" parent="0WwnzeJDcboaGbobXKBc-2" source="0WwnzeJDcboaGbobXKBc-84" target="0WwnzeJDcboaGbobXKBc-86" edge="1">
          <mxGeometry relative="1" as="geometry" />
        </mxCell>
        <mxCell id="0WwnzeJDcboaGbobXKBc-122" style="edgeStyle=orthogonalEdgeStyle;rounded=0;orthogonalLoop=1;jettySize=auto;html=1;endArrow=none;endFill=0;" parent="0WwnzeJDcboaGbobXKBc-2" source="0WwnzeJDcboaGbobXKBc-89" target="0WwnzeJDcboaGbobXKBc-91" edge="1">
          <mxGeometry relative="1" as="geometry" />
        </mxCell>
        <mxCell id="0WwnzeJDcboaGbobXKBc-126" style="edgeStyle=orthogonalEdgeStyle;rounded=0;orthogonalLoop=1;jettySize=auto;html=1;exitX=0.5;exitY=1;exitDx=0;exitDy=0;entryX=0.009;entryY=0.571;entryDx=0;entryDy=0;entryPerimeter=0;endArrow=none;endFill=0;" parent="0WwnzeJDcboaGbobXKBc-2" target="0WwnzeJDcboaGbobXKBc-92" edge="1">
          <mxGeometry relative="1" as="geometry">
            <mxPoint x="467.9999999999998" y="635" as="sourcePoint" />
            <Array as="points">
              <mxPoint x="468.5" y="750" />
              <mxPoint x="510.5" y="750" />
            </Array>
          </mxGeometry>
        </mxCell>
        <mxCell id="0WwnzeJDcboaGbobXKBc-89" value="電子書" style="ellipse;whiteSpace=wrap;html=1;" parent="0WwnzeJDcboaGbobXKBc-2" vertex="1">
          <mxGeometry x="434.5" y="602.5" width="75" height="65" as="geometry" />
        </mxCell>
        <mxCell id="0WwnzeJDcboaGbobXKBc-119" style="edgeStyle=orthogonalEdgeStyle;rounded=0;orthogonalLoop=1;jettySize=auto;html=1;entryX=0.5;entryY=0;entryDx=0;entryDy=0;endArrow=none;endFill=0;" parent="0WwnzeJDcboaGbobXKBc-2" source="0WwnzeJDcboaGbobXKBc-91" target="0WwnzeJDcboaGbobXKBc-95" edge="1">
          <mxGeometry relative="1" as="geometry" />
        </mxCell>
        <mxCell id="0WwnzeJDcboaGbobXKBc-91" value="租借" style="ellipse;whiteSpace=wrap;html=1;" parent="0WwnzeJDcboaGbobXKBc-2" vertex="1">
          <mxGeometry x="255.5" y="605" width="66" height="60" as="geometry" />
        </mxCell>
        <mxCell id="0WwnzeJDcboaGbobXKBc-127" style="edgeStyle=orthogonalEdgeStyle;rounded=0;orthogonalLoop=1;jettySize=auto;html=1;entryX=0.995;entryY=0.555;entryDx=0;entryDy=0;entryPerimeter=0;dashed=1;endArrow=block;endFill=0;" parent="0WwnzeJDcboaGbobXKBc-2" source="0WwnzeJDcboaGbobXKBc-92" target="0WwnzeJDcboaGbobXKBc-107" edge="1">
          <mxGeometry relative="1" as="geometry">
            <Array as="points">
              <mxPoint x="542.5" y="936" />
            </Array>
          </mxGeometry>
        </mxCell>
        <mxCell id="0WwnzeJDcboaGbobXKBc-129" style="edgeStyle=orthogonalEdgeStyle;rounded=0;orthogonalLoop=1;jettySize=auto;html=1;exitX=1;exitY=0.5;exitDx=0;exitDy=0;entryX=0.5;entryY=0;entryDx=0;entryDy=0;dashed=1;endArrow=block;endFill=0;" parent="0WwnzeJDcboaGbobXKBc-2" source="0WwnzeJDcboaGbobXKBc-92" edge="1">
          <mxGeometry relative="1" as="geometry">
            <mxPoint x="750" y="882.5000000000002" as="targetPoint" />
            <Array as="points">
              <mxPoint x="750.5" y="750" />
              <mxPoint x="750.5" y="815" />
            </Array>
          </mxGeometry>
        </mxCell>
        <mxCell id="0WwnzeJDcboaGbobXKBc-92" value="購買" style="ellipse;whiteSpace=wrap;html=1;" parent="0WwnzeJDcboaGbobXKBc-2" vertex="1">
          <mxGeometry x="509.5" y="720" width="66" height="60" as="geometry" />
        </mxCell>
        <mxCell id="0WwnzeJDcboaGbobXKBc-85" style="edgeStyle=orthogonalEdgeStyle;rounded=0;orthogonalLoop=1;jettySize=auto;html=1;exitX=0.5;exitY=1;exitDx=0;exitDy=0;startArrow=none;startFill=0;endArrow=none;endFill=0;entryX=0.5;entryY=0;entryDx=0;entryDy=0;" parent="0WwnzeJDcboaGbobXKBc-2" source="0WwnzeJDcboaGbobXKBc-86" target="0WwnzeJDcboaGbobXKBc-92" edge="1">
          <mxGeometry relative="1" as="geometry">
            <mxPoint x="545.5" y="715" as="targetPoint" />
          </mxGeometry>
        </mxCell>
        <mxCell id="0WwnzeJDcboaGbobXKBc-93" style="edgeStyle=orthogonalEdgeStyle;rounded=0;orthogonalLoop=1;jettySize=auto;html=1;exitX=1;exitY=0.5;exitDx=0;exitDy=0;entryX=0;entryY=0.5;entryDx=0;entryDy=0;endArrow=none;endFill=0;" parent="0WwnzeJDcboaGbobXKBc-2" source="0WwnzeJDcboaGbobXKBc-94" target="0WwnzeJDcboaGbobXKBc-84" edge="1">
          <mxGeometry relative="1" as="geometry" />
        </mxCell>
        <mxCell id="0WwnzeJDcboaGbobXKBc-116" style="edgeStyle=orthogonalEdgeStyle;rounded=0;orthogonalLoop=1;jettySize=auto;html=1;exitX=0.5;exitY=1;exitDx=0;exitDy=0;dashed=1;" parent="0WwnzeJDcboaGbobXKBc-2" source="0WwnzeJDcboaGbobXKBc-94" target="0WwnzeJDcboaGbobXKBc-105" edge="1">
          <mxGeometry relative="1" as="geometry" />
        </mxCell>
        <mxCell id="bIyPY5hqKGNsFiyJF8qw-16" style="edgeStyle=orthogonalEdgeStyle;rounded=0;orthogonalLoop=1;jettySize=auto;html=1;exitX=-0.015;exitY=0.441;exitDx=0;exitDy=0;endArrow=block;endFill=0;dashed=1;exitPerimeter=0;" edge="1" parent="0WwnzeJDcboaGbobXKBc-2" source="0WwnzeJDcboaGbobXKBc-94" target="bIyPY5hqKGNsFiyJF8qw-15">
          <mxGeometry relative="1" as="geometry">
            <Array as="points">
              <mxPoint x="119" y="480" />
              <mxPoint x="75" y="480" />
            </Array>
          </mxGeometry>
        </mxCell>
        <mxCell id="0WwnzeJDcboaGbobXKBc-94" value="預覽書本" style="ellipse;whiteSpace=wrap;html=1;" parent="0WwnzeJDcboaGbobXKBc-2" vertex="1">
          <mxGeometry x="120" y="455" width="90" height="50" as="geometry" />
        </mxCell>
        <mxCell id="0WwnzeJDcboaGbobXKBc-108" style="edgeStyle=orthogonalEdgeStyle;rounded=0;orthogonalLoop=1;jettySize=auto;html=1;entryX=0.5;entryY=0;entryDx=0;entryDy=0;endArrow=block;endFill=0;dashed=1;" parent="0WwnzeJDcboaGbobXKBc-2" source="0WwnzeJDcboaGbobXKBc-95" target="0WwnzeJDcboaGbobXKBc-107" edge="1">
          <mxGeometry relative="1" as="geometry" />
        </mxCell>
        <mxCell id="0WwnzeJDcboaGbobXKBc-95" value="返還" style="ellipse;whiteSpace=wrap;html=1;" parent="0WwnzeJDcboaGbobXKBc-2" vertex="1">
          <mxGeometry x="254" y="725" width="69" height="55" as="geometry" />
        </mxCell>
        <mxCell id="0WwnzeJDcboaGbobXKBc-97" value="&amp;lt;&amp;lt; include &amp;gt;&amp;gt;" style="text;html=1;align=center;verticalAlign=middle;resizable=0;points=[];autosize=1;strokeColor=none;fillColor=none;rotation=90;" parent="0WwnzeJDcboaGbobXKBc-2" vertex="1">
          <mxGeometry x="135.5" y="602.5" width="100" height="30" as="geometry" />
        </mxCell>
        <mxCell id="0WwnzeJDcboaGbobXKBc-105" value="查看評論" style="ellipse;whiteSpace=wrap;html=1;" parent="0WwnzeJDcboaGbobXKBc-2" vertex="1">
          <mxGeometry x="125" y="755" width="80" height="55" as="geometry" />
        </mxCell>
        <mxCell id="0WwnzeJDcboaGbobXKBc-107" value="填寫評論" style="ellipse;whiteSpace=wrap;html=1;" parent="0WwnzeJDcboaGbobXKBc-2" vertex="1">
          <mxGeometry x="255" y="902.5" width="66" height="60" as="geometry" />
        </mxCell>
        <mxCell id="0WwnzeJDcboaGbobXKBc-112" value="&amp;lt;&amp;lt; extends &amp;gt;&amp;gt;" style="text;html=1;strokeColor=none;fillColor=none;align=center;verticalAlign=middle;whiteSpace=wrap;rounded=0;rotation=90;" parent="0WwnzeJDcboaGbobXKBc-2" vertex="1">
          <mxGeometry x="220" y="825" width="90" height="30" as="geometry" />
        </mxCell>
        <mxCell id="0WwnzeJDcboaGbobXKBc-113" value="&amp;lt;&amp;lt; extends &amp;gt;&amp;gt;" style="text;html=1;strokeColor=none;fillColor=none;align=center;verticalAlign=middle;whiteSpace=wrap;rounded=0;rotation=0;" parent="0WwnzeJDcboaGbobXKBc-2" vertex="1">
          <mxGeometry x="393" y="902.5" width="90" height="30" as="geometry" />
        </mxCell>
        <mxCell id="0WwnzeJDcboaGbobXKBc-128" value="電子支付" style="ellipse;whiteSpace=wrap;html=1;" parent="0WwnzeJDcboaGbobXKBc-2" vertex="1">
          <mxGeometry x="700" y="882.5" width="91" height="70" as="geometry" />
        </mxCell>
        <mxCell id="0WwnzeJDcboaGbobXKBc-130" value="&amp;lt;&amp;lt; extends &amp;gt;&amp;gt;" style="text;html=1;strokeColor=none;fillColor=none;align=center;verticalAlign=middle;whiteSpace=wrap;rounded=0;rotation=0;" parent="0WwnzeJDcboaGbobXKBc-2" vertex="1">
          <mxGeometry x="624.5" y="755" width="90" height="30" as="geometry" />
        </mxCell>
        <mxCell id="bIyPY5hqKGNsFiyJF8qw-9" style="edgeStyle=orthogonalEdgeStyle;rounded=0;orthogonalLoop=1;jettySize=auto;html=1;entryX=0.5;entryY=0;entryDx=0;entryDy=0;endArrow=none;endFill=0;" edge="1" parent="0WwnzeJDcboaGbobXKBc-2" source="bIyPY5hqKGNsFiyJF8qw-6" target="bIyPY5hqKGNsFiyJF8qw-8">
          <mxGeometry relative="1" as="geometry" />
        </mxCell>
        <mxCell id="bIyPY5hqKGNsFiyJF8qw-11" style="edgeStyle=orthogonalEdgeStyle;rounded=0;orthogonalLoop=1;jettySize=auto;html=1;entryX=0.5;entryY=0;entryDx=0;entryDy=0;endArrow=none;endFill=0;" edge="1" parent="0WwnzeJDcboaGbobXKBc-2" source="bIyPY5hqKGNsFiyJF8qw-6" target="bIyPY5hqKGNsFiyJF8qw-10">
          <mxGeometry relative="1" as="geometry">
            <Array as="points">
              <mxPoint x="581" y="1083" />
            </Array>
          </mxGeometry>
        </mxCell>
        <mxCell id="bIyPY5hqKGNsFiyJF8qw-14" style="edgeStyle=orthogonalEdgeStyle;rounded=0;orthogonalLoop=1;jettySize=auto;html=1;exitX=1;exitY=1;exitDx=0;exitDy=0;entryX=0.5;entryY=0;entryDx=0;entryDy=0;endArrow=none;endFill=0;" edge="1" parent="0WwnzeJDcboaGbobXKBc-2" source="bIyPY5hqKGNsFiyJF8qw-6" target="bIyPY5hqKGNsFiyJF8qw-13">
          <mxGeometry relative="1" as="geometry">
            <Array as="points">
              <mxPoint x="189" y="1135" />
              <mxPoint x="345" y="1135" />
            </Array>
          </mxGeometry>
        </mxCell>
        <mxCell id="bIyPY5hqKGNsFiyJF8qw-6" value="我的賣場" style="ellipse;whiteSpace=wrap;html=1;" vertex="1" parent="0WwnzeJDcboaGbobXKBc-2">
          <mxGeometry x="120" y="1055" width="80" height="55" as="geometry" />
        </mxCell>
        <mxCell id="bIyPY5hqKGNsFiyJF8qw-8" value="上架書本" style="ellipse;whiteSpace=wrap;html=1;" vertex="1" parent="0WwnzeJDcboaGbobXKBc-2">
          <mxGeometry x="120" y="1195" width="80" height="55" as="geometry" />
        </mxCell>
        <mxCell id="bIyPY5hqKGNsFiyJF8qw-10" value="查看商品狀態" style="ellipse;whiteSpace=wrap;html=1;" vertex="1" parent="0WwnzeJDcboaGbobXKBc-2">
          <mxGeometry x="521" y="1195" width="120" height="55" as="geometry" />
        </mxCell>
        <mxCell id="bIyPY5hqKGNsFiyJF8qw-13" value="與買家聯絡" style="ellipse;whiteSpace=wrap;html=1;" vertex="1" parent="0WwnzeJDcboaGbobXKBc-2">
          <mxGeometry x="300" y="1195" width="90" height="55" as="geometry" />
        </mxCell>
        <mxCell id="bIyPY5hqKGNsFiyJF8qw-15" value="與賣家聯絡" style="ellipse;whiteSpace=wrap;html=1;" vertex="1" parent="0WwnzeJDcboaGbobXKBc-2">
          <mxGeometry x="30" y="660" width="90" height="50" as="geometry" />
        </mxCell>
        <mxCell id="bIyPY5hqKGNsFiyJF8qw-17" value="&amp;lt;&amp;lt; extends &amp;gt;&amp;gt;" style="text;html=1;strokeColor=none;fillColor=none;align=center;verticalAlign=middle;whiteSpace=wrap;rounded=0;rotation=90;" vertex="1" parent="0WwnzeJDcboaGbobXKBc-2">
          <mxGeometry x="45.5" y="567.5" width="90" height="30" as="geometry" />
        </mxCell>
        <mxCell id="0WwnzeJDcboaGbobXKBc-133" style="edgeStyle=orthogonalEdgeStyle;rounded=0;orthogonalLoop=1;jettySize=auto;html=1;endArrow=block;endFill=0;" parent="1" source="0WwnzeJDcboaGbobXKBc-21" target="0WwnzeJDcboaGbobXKBc-22" edge="1">
          <mxGeometry relative="1" as="geometry" />
        </mxCell>
        <mxCell id="0WwnzeJDcboaGbobXKBc-21" value="舊用戶" style="shape=umlActor;verticalLabelPosition=bottom;verticalAlign=top;html=1;outlineConnect=0;" parent="1" vertex="1">
          <mxGeometry x="200" y="450" width="30" height="60" as="geometry" />
        </mxCell>
        <mxCell id="0WwnzeJDcboaGbobXKBc-102" style="edgeStyle=orthogonalEdgeStyle;rounded=0;orthogonalLoop=1;jettySize=auto;html=1;entryX=0.5;entryY=0;entryDx=0;entryDy=0;endArrow=none;endFill=0;" parent="1" source="0WwnzeJDcboaGbobXKBc-22" target="0WwnzeJDcboaGbobXKBc-94" edge="1">
          <mxGeometry relative="1" as="geometry">
            <Array as="points">
              <mxPoint x="250" y="740" />
              <mxPoint x="250" y="610" />
              <mxPoint x="495" y="610" />
            </Array>
          </mxGeometry>
        </mxCell>
        <mxCell id="0WwnzeJDcboaGbobXKBc-22" value="用戶" style="shape=umlActor;verticalLabelPosition=bottom;verticalAlign=top;html=1;outlineConnect=0;" parent="1" vertex="1">
          <mxGeometry x="130" y="710" width="30" height="60" as="geometry" />
        </mxCell>
        <mxCell id="0WwnzeJDcboaGbobXKBc-33" style="edgeStyle=orthogonalEdgeStyle;rounded=0;orthogonalLoop=1;jettySize=auto;html=1;endArrow=block;endFill=0;" parent="1" source="0WwnzeJDcboaGbobXKBc-32" target="0WwnzeJDcboaGbobXKBc-22" edge="1">
          <mxGeometry relative="1" as="geometry">
            <Array as="points">
              <mxPoint x="145" y="480" />
            </Array>
          </mxGeometry>
        </mxCell>
        <mxCell id="0WwnzeJDcboaGbobXKBc-32" value="新用戶" style="shape=umlActor;verticalLabelPosition=bottom;verticalAlign=top;html=1;outlineConnect=0;" parent="1" vertex="1">
          <mxGeometry x="60" y="450" width="30" height="60" as="geometry" />
        </mxCell>
        <mxCell id="0WwnzeJDcboaGbobXKBc-98" style="edgeStyle=orthogonalEdgeStyle;rounded=0;orthogonalLoop=1;jettySize=auto;html=1;entryX=0.5;entryY=0;entryDx=0;entryDy=0;entryPerimeter=0;endArrow=none;endFill=0;" parent="1" source="0WwnzeJDcboaGbobXKBc-35" target="0WwnzeJDcboaGbobXKBc-32" edge="1">
          <mxGeometry relative="1" as="geometry">
            <Array as="points">
              <mxPoint x="470" y="240" />
              <mxPoint x="75" y="240" />
            </Array>
          </mxGeometry>
        </mxCell>
        <mxCell id="0WwnzeJDcboaGbobXKBc-99" style="edgeStyle=orthogonalEdgeStyle;rounded=0;orthogonalLoop=1;jettySize=auto;html=1;exitX=0;exitY=0.5;exitDx=0;exitDy=0;entryX=0.5;entryY=0;entryDx=0;entryDy=0;entryPerimeter=0;endArrow=none;endFill=0;" parent="1" source="0WwnzeJDcboaGbobXKBc-35" target="0WwnzeJDcboaGbobXKBc-21" edge="1">
          <mxGeometry relative="1" as="geometry">
            <Array as="points">
              <mxPoint x="215" y="310" />
            </Array>
          </mxGeometry>
        </mxCell>
        <mxCell id="bIyPY5hqKGNsFiyJF8qw-5" style="edgeStyle=orthogonalEdgeStyle;rounded=0;orthogonalLoop=1;jettySize=auto;html=1;exitX=0.5;exitY=0;exitDx=0;exitDy=0;exitPerimeter=0;endArrow=block;endFill=0;" edge="1" parent="1" source="bIyPY5hqKGNsFiyJF8qw-1">
          <mxGeometry relative="1" as="geometry">
            <mxPoint x="145" y="800" as="targetPoint" />
          </mxGeometry>
        </mxCell>
        <mxCell id="bIyPY5hqKGNsFiyJF8qw-7" style="edgeStyle=orthogonalEdgeStyle;rounded=0;orthogonalLoop=1;jettySize=auto;html=1;endArrow=none;endFill=0;" edge="1" parent="1" source="bIyPY5hqKGNsFiyJF8qw-1" target="bIyPY5hqKGNsFiyJF8qw-6">
          <mxGeometry relative="1" as="geometry" />
        </mxCell>
        <mxCell id="bIyPY5hqKGNsFiyJF8qw-1" value="賣家" style="shape=umlActor;verticalLabelPosition=bottom;verticalAlign=top;html=1;outlineConnect=0;" vertex="1" parent="1">
          <mxGeometry x="130" y="1120" width="30" height="60" as="geometry" />
        </mxCell>
      </root>
    </mxGraphModel>
  </diagram>
  <diagram id="I1DS4iShznRxgmD40Sv0" name="第 2 页">
    <mxGraphModel dx="1617" dy="2614" grid="1" gridSize="10" guides="1" tooltips="1" connect="1" arrows="1" fold="1" page="1" pageScale="1" pageWidth="1169" pageHeight="1654" math="0" shadow="0">
      <root>
        <mxCell id="0" />
        <mxCell id="1" parent="0" />
        <mxCell id="V1Nyt2eJGs27ZjWTDNi4-1" style="edgeStyle=orthogonalEdgeStyle;rounded=0;orthogonalLoop=1;jettySize=auto;html=1;entryX=0;entryY=0.5;entryDx=0;entryDy=0;fontSize=16;endArrow=none;endFill=0;" edge="1" parent="1" source="V1Nyt2eJGs27ZjWTDNi4-2" target="V1Nyt2eJGs27ZjWTDNi4-5">
          <mxGeometry relative="1" as="geometry">
            <mxPoint x="320" y="-760" as="targetPoint" />
          </mxGeometry>
        </mxCell>
        <mxCell id="V1Nyt2eJGs27ZjWTDNi4-2" value="用戶" style="shape=umlActor;verticalLabelPosition=bottom;verticalAlign=top;html=1;outlineConnect=0;" vertex="1" parent="1">
          <mxGeometry x="120" y="-630" width="40" height="76" as="geometry" />
        </mxCell>
        <mxCell id="V1Nyt2eJGs27ZjWTDNi4-3" value="&lt;font style=&quot;font-size: 16px;&quot;&gt;用戶對話式搜索書本&lt;/font&gt;" style="swimlane;whiteSpace=wrap;html=1;" vertex="1" parent="1">
          <mxGeometry x="230" y="-910" width="500" height="400" as="geometry" />
        </mxCell>
        <mxCell id="V1Nyt2eJGs27ZjWTDNi4-4" style="edgeStyle=orthogonalEdgeStyle;rounded=0;orthogonalLoop=1;jettySize=auto;html=1;exitX=1;exitY=0.5;exitDx=0;exitDy=0;fontSize=14;endArrow=none;endFill=0;" edge="1" parent="V1Nyt2eJGs27ZjWTDNi4-3" source="V1Nyt2eJGs27ZjWTDNi4-5" target="V1Nyt2eJGs27ZjWTDNi4-7">
          <mxGeometry relative="1" as="geometry" />
        </mxCell>
        <mxCell id="V1Nyt2eJGs27ZjWTDNi4-5" value="&lt;span style=&quot;font-size: 12px;&quot;&gt;敘述想看的書本內容&lt;/span&gt;" style="ellipse;whiteSpace=wrap;html=1;fontSize=14;" vertex="1" parent="V1Nyt2eJGs27ZjWTDNi4-3">
          <mxGeometry x="40" y="42" width="160" height="60" as="geometry" />
        </mxCell>
        <mxCell id="V1Nyt2eJGs27ZjWTDNi4-6" style="edgeStyle=orthogonalEdgeStyle;rounded=0;orthogonalLoop=1;jettySize=auto;html=1;exitX=0.5;exitY=1;exitDx=0;exitDy=0;fontSize=14;endArrow=none;endFill=0;" edge="1" parent="V1Nyt2eJGs27ZjWTDNi4-3" source="V1Nyt2eJGs27ZjWTDNi4-7" target="V1Nyt2eJGs27ZjWTDNi4-9">
          <mxGeometry relative="1" as="geometry" />
        </mxCell>
        <mxCell id="V1Nyt2eJGs27ZjWTDNi4-7" value="&lt;span style=&quot;font-size: 12px;&quot;&gt;AI 進行分析用戶敘述&lt;/span&gt;" style="ellipse;whiteSpace=wrap;html=1;fontSize=14;" vertex="1" parent="V1Nyt2eJGs27ZjWTDNi4-3">
          <mxGeometry x="300" y="47" width="160" height="50" as="geometry" />
        </mxCell>
        <mxCell id="V1Nyt2eJGs27ZjWTDNi4-8" style="edgeStyle=orthogonalEdgeStyle;rounded=0;orthogonalLoop=1;jettySize=auto;html=1;exitX=0.5;exitY=1;exitDx=0;exitDy=0;entryX=0.5;entryY=0;entryDx=0;entryDy=0;fontSize=14;endArrow=none;endFill=0;" edge="1" parent="V1Nyt2eJGs27ZjWTDNi4-3" source="V1Nyt2eJGs27ZjWTDNi4-9" target="V1Nyt2eJGs27ZjWTDNi4-11">
          <mxGeometry relative="1" as="geometry" />
        </mxCell>
        <mxCell id="V1Nyt2eJGs27ZjWTDNi4-9" value="&lt;span style=&quot;font-size: 12px;&quot;&gt;搜索書庫是否有相符書本&lt;/span&gt;" style="ellipse;whiteSpace=wrap;html=1;fontSize=14;" vertex="1" parent="V1Nyt2eJGs27ZjWTDNi4-3">
          <mxGeometry x="170" y="170" width="160" height="50" as="geometry" />
        </mxCell>
        <mxCell id="V1Nyt2eJGs27ZjWTDNi4-10" style="edgeStyle=orthogonalEdgeStyle;rounded=0;orthogonalLoop=1;jettySize=auto;html=1;exitX=0;exitY=0.5;exitDx=0;exitDy=0;fontSize=14;endArrow=none;endFill=0;" edge="1" parent="V1Nyt2eJGs27ZjWTDNi4-3" source="V1Nyt2eJGs27ZjWTDNi4-11" target="V1Nyt2eJGs27ZjWTDNi4-12">
          <mxGeometry relative="1" as="geometry" />
        </mxCell>
        <mxCell id="V1Nyt2eJGs27ZjWTDNi4-11" value="&lt;span style=&quot;font-size: 12px;&quot;&gt;AI 彙整搜索結果&lt;/span&gt;" style="ellipse;whiteSpace=wrap;html=1;fontSize=14;" vertex="1" parent="V1Nyt2eJGs27ZjWTDNi4-3">
          <mxGeometry x="300" y="290" width="160" height="50" as="geometry" />
        </mxCell>
        <mxCell id="V1Nyt2eJGs27ZjWTDNi4-12" value="&lt;span style=&quot;font-size: 12px;&quot;&gt;AI 回答結果&lt;/span&gt;" style="ellipse;whiteSpace=wrap;html=1;fontSize=14;" vertex="1" parent="V1Nyt2eJGs27ZjWTDNi4-3">
          <mxGeometry x="40" y="290" width="160" height="50" as="geometry" />
        </mxCell>
      </root>
    </mxGraphModel>
  </diagram>
  <diagram id="fQHkbRn-pO_E9gneuS1Z" name="第 3 页">
    <mxGraphModel dx="1617" dy="960" grid="1" gridSize="10" guides="1" tooltips="1" connect="1" arrows="1" fold="1" page="1" pageScale="1" pageWidth="1169" pageHeight="1654" math="0" shadow="0">
      <root>
        <mxCell id="0" />
        <mxCell id="1" parent="0" />
        <mxCell id="gbLF52luCfXQgLGVeHla-1" value="用戶登入" style="swimlane;whiteSpace=wrap;html=1;" vertex="1" parent="1">
          <mxGeometry x="220" y="130" width="380" height="460" as="geometry" />
        </mxCell>
        <mxCell id="gbLF52luCfXQgLGVeHla-2" style="edgeStyle=orthogonalEdgeStyle;rounded=0;orthogonalLoop=1;jettySize=auto;html=1;exitX=0.5;exitY=1;exitDx=0;exitDy=0;entryX=0.5;entryY=0;entryDx=0;entryDy=0;endArrow=none;endFill=0;" edge="1" parent="gbLF52luCfXQgLGVeHla-1" source="gbLF52luCfXQgLGVeHla-3" target="gbLF52luCfXQgLGVeHla-4">
          <mxGeometry relative="1" as="geometry" />
        </mxCell>
        <mxCell id="gbLF52luCfXQgLGVeHla-3" value="輸入用戶名稱與密碼" style="ellipse;whiteSpace=wrap;html=1;" vertex="1" parent="gbLF52luCfXQgLGVeHla-1">
          <mxGeometry x="20" y="80" width="140" height="60" as="geometry" />
        </mxCell>
        <mxCell id="gbLF52luCfXQgLGVeHla-4" value="申辦帳號" style="ellipse;whiteSpace=wrap;html=1;" vertex="1" parent="gbLF52luCfXQgLGVeHla-1">
          <mxGeometry x="52.5" y="220" width="75" height="60" as="geometry" />
        </mxCell>
        <mxCell id="gbLF52luCfXQgLGVeHla-5" style="edgeStyle=orthogonalEdgeStyle;rounded=0;orthogonalLoop=1;jettySize=auto;html=1;entryX=1;entryY=0.5;entryDx=0;entryDy=0;endArrow=classic;endFill=1;dashed=1;exitX=0.5;exitY=0;exitDx=0;exitDy=0;" edge="1" parent="gbLF52luCfXQgLGVeHla-1" source="gbLF52luCfXQgLGVeHla-6" target="gbLF52luCfXQgLGVeHla-3">
          <mxGeometry relative="1" as="geometry">
            <mxPoint x="230" y="250" as="sourcePoint" />
            <Array as="points">
              <mxPoint x="288" y="170" />
              <mxPoint x="288" y="110" />
            </Array>
          </mxGeometry>
        </mxCell>
        <mxCell id="gbLF52luCfXQgLGVeHla-6" value="訪客模式" style="ellipse;whiteSpace=wrap;html=1;" vertex="1" parent="gbLF52luCfXQgLGVeHla-1">
          <mxGeometry x="250" y="210" width="75" height="60" as="geometry" />
        </mxCell>
        <mxCell id="gbLF52luCfXQgLGVeHla-7" style="edgeStyle=orthogonalEdgeStyle;rounded=0;orthogonalLoop=1;jettySize=auto;html=1;entryX=0.5;entryY=1;entryDx=0;entryDy=0;endArrow=classic;endFill=1;dashed=1;" edge="1" parent="gbLF52luCfXQgLGVeHla-1" source="gbLF52luCfXQgLGVeHla-8" target="gbLF52luCfXQgLGVeHla-4">
          <mxGeometry relative="1" as="geometry" />
        </mxCell>
        <mxCell id="gbLF52luCfXQgLGVeHla-8" value="使用指南" style="ellipse;whiteSpace=wrap;html=1;" vertex="1" parent="gbLF52luCfXQgLGVeHla-1">
          <mxGeometry x="52.5" y="380" width="75" height="60" as="geometry" />
        </mxCell>
        <mxCell id="gbLF52luCfXQgLGVeHla-9" value="&amp;lt;&amp;lt; extends &amp;gt;&amp;gt;" style="text;html=1;strokeColor=none;fillColor=none;align=center;verticalAlign=middle;whiteSpace=wrap;rounded=0;" vertex="1" parent="gbLF52luCfXQgLGVeHla-1">
          <mxGeometry x="190" y="80" width="90" height="30" as="geometry" />
        </mxCell>
        <mxCell id="gbLF52luCfXQgLGVeHla-10" value="&amp;lt;&amp;lt; extends &amp;gt;&amp;gt;" style="text;html=1;strokeColor=none;fillColor=none;align=center;verticalAlign=middle;whiteSpace=wrap;rounded=0;rotation=90;" vertex="1" parent="gbLF52luCfXQgLGVeHla-1">
          <mxGeometry x="60" y="320" width="90" height="30" as="geometry" />
        </mxCell>
        <mxCell id="gbLF52luCfXQgLGVeHla-11" value="用戶" style="shape=umlActor;verticalLabelPosition=bottom;verticalAlign=top;html=1;outlineConnect=0;" vertex="1" parent="1">
          <mxGeometry x="90" y="470" width="30" height="60" as="geometry" />
        </mxCell>
        <mxCell id="gbLF52luCfXQgLGVeHla-12" style="edgeStyle=orthogonalEdgeStyle;rounded=0;orthogonalLoop=1;jettySize=auto;html=1;entryX=0.5;entryY=0;entryDx=0;entryDy=0;entryPerimeter=0;endArrow=block;endFill=0;" edge="1" parent="1" source="gbLF52luCfXQgLGVeHla-13" target="gbLF52luCfXQgLGVeHla-11">
          <mxGeometry relative="1" as="geometry" />
        </mxCell>
        <mxCell id="gbLF52luCfXQgLGVeHla-13" value="舊用戶" style="shape=umlActor;verticalLabelPosition=bottom;verticalAlign=top;html=1;outlineConnect=0;" vertex="1" parent="1">
          <mxGeometry x="50" y="350" width="30" height="60" as="geometry" />
        </mxCell>
        <mxCell id="gbLF52luCfXQgLGVeHla-14" style="edgeStyle=orthogonalEdgeStyle;rounded=0;orthogonalLoop=1;jettySize=auto;html=1;entryX=0.5;entryY=0;entryDx=0;entryDy=0;entryPerimeter=0;endArrow=block;endFill=0;" edge="1" parent="1" source="gbLF52luCfXQgLGVeHla-16" target="gbLF52luCfXQgLGVeHla-11">
          <mxGeometry relative="1" as="geometry" />
        </mxCell>
        <mxCell id="gbLF52luCfXQgLGVeHla-15" style="edgeStyle=orthogonalEdgeStyle;rounded=0;orthogonalLoop=1;jettySize=auto;html=1;entryX=0;entryY=0.5;entryDx=0;entryDy=0;endArrow=none;endFill=0;" edge="1" parent="1" source="gbLF52luCfXQgLGVeHla-16" target="gbLF52luCfXQgLGVeHla-4">
          <mxGeometry relative="1" as="geometry" />
        </mxCell>
        <mxCell id="gbLF52luCfXQgLGVeHla-16" value="新用戶" style="shape=umlActor;verticalLabelPosition=bottom;verticalAlign=top;html=1;outlineConnect=0;" vertex="1" parent="1">
          <mxGeometry x="130" y="350" width="30" height="60" as="geometry" />
        </mxCell>
        <mxCell id="gbLF52luCfXQgLGVeHla-17" style="edgeStyle=orthogonalEdgeStyle;rounded=0;orthogonalLoop=1;jettySize=auto;html=1;exitX=0;exitY=0.5;exitDx=0;exitDy=0;entryX=0.5;entryY=0;entryDx=0;entryDy=0;entryPerimeter=0;endArrow=none;endFill=0;" edge="1" parent="1" source="gbLF52luCfXQgLGVeHla-3" target="gbLF52luCfXQgLGVeHla-13">
          <mxGeometry relative="1" as="geometry" />
        </mxCell>
      </root>
    </mxGraphModel>
  </diagram>
  <diagram id="TZheQ4UtAMiVdlDoZJXI" name="第 4 页">
    <mxGraphModel dx="1617" dy="960" grid="1" gridSize="10" guides="1" tooltips="1" connect="1" arrows="1" fold="1" page="1" pageScale="1" pageWidth="1169" pageHeight="1654" math="0" shadow="0">
      <root>
        <mxCell id="0" />
        <mxCell id="1" parent="0" />
        <mxCell id="Ke5rd1nxsrI9M_XZsOlw-1" value="用戶" style="shape=umlActor;verticalLabelPosition=bottom;verticalAlign=top;html=1;outlineConnect=0;" vertex="1" parent="1">
          <mxGeometry x="50" y="210" width="30" height="60" as="geometry" />
        </mxCell>
        <mxCell id="Ke5rd1nxsrI9M_XZsOlw-2" value="用戶購買書本" style="swimlane;whiteSpace=wrap;html=1;" vertex="1" parent="1">
          <mxGeometry x="130" y="80" width="410" height="340" as="geometry">
            <mxRectangle x="270" y="100" width="110" height="30" as="alternateBounds" />
          </mxGeometry>
        </mxCell>
        <mxCell id="Ke5rd1nxsrI9M_XZsOlw-3" style="edgeStyle=orthogonalEdgeStyle;rounded=0;orthogonalLoop=1;jettySize=auto;html=1;exitX=0.5;exitY=1;exitDx=0;exitDy=0;entryX=0.5;entryY=0;entryDx=0;entryDy=0;endArrow=none;endFill=0;" edge="1" parent="Ke5rd1nxsrI9M_XZsOlw-2" source="Ke5rd1nxsrI9M_XZsOlw-5" target="Ke5rd1nxsrI9M_XZsOlw-10">
          <mxGeometry relative="1" as="geometry" />
        </mxCell>
        <mxCell id="Ke5rd1nxsrI9M_XZsOlw-4" style="edgeStyle=orthogonalEdgeStyle;rounded=0;orthogonalLoop=1;jettySize=auto;html=1;exitX=1;exitY=0.5;exitDx=0;exitDy=0;entryX=0.5;entryY=0;entryDx=0;entryDy=0;endArrow=none;endFill=0;" edge="1" parent="Ke5rd1nxsrI9M_XZsOlw-2" source="Ke5rd1nxsrI9M_XZsOlw-5" target="Ke5rd1nxsrI9M_XZsOlw-7">
          <mxGeometry relative="1" as="geometry" />
        </mxCell>
        <mxCell id="Ke5rd1nxsrI9M_XZsOlw-5" value="將書本加入購物車" style="ellipse;whiteSpace=wrap;html=1;" vertex="1" parent="Ke5rd1nxsrI9M_XZsOlw-2">
          <mxGeometry x="164" y="40" width="120" height="50" as="geometry" />
        </mxCell>
        <mxCell id="Ke5rd1nxsrI9M_XZsOlw-6" style="edgeStyle=orthogonalEdgeStyle;rounded=0;orthogonalLoop=1;jettySize=auto;html=1;exitX=0.5;exitY=1;exitDx=0;exitDy=0;entryX=1;entryY=0.5;entryDx=0;entryDy=0;startArrow=none;startFill=0;endArrow=none;endFill=0;" edge="1" parent="Ke5rd1nxsrI9M_XZsOlw-2" source="Ke5rd1nxsrI9M_XZsOlw-7" target="Ke5rd1nxsrI9M_XZsOlw-13">
          <mxGeometry relative="1" as="geometry" />
        </mxCell>
        <mxCell id="Ke5rd1nxsrI9M_XZsOlw-7" value="實體書" style="ellipse;whiteSpace=wrap;html=1;" vertex="1" parent="Ke5rd1nxsrI9M_XZsOlw-2">
          <mxGeometry x="314" y="120" width="60" height="50" as="geometry" />
        </mxCell>
        <mxCell id="Ke5rd1nxsrI9M_XZsOlw-8" style="edgeStyle=orthogonalEdgeStyle;rounded=0;orthogonalLoop=1;jettySize=auto;html=1;exitX=0.5;exitY=1;exitDx=0;exitDy=0;entryX=0.5;entryY=0;entryDx=0;entryDy=0;endArrow=none;endFill=0;" edge="1" parent="Ke5rd1nxsrI9M_XZsOlw-2" source="Ke5rd1nxsrI9M_XZsOlw-10" target="Ke5rd1nxsrI9M_XZsOlw-12">
          <mxGeometry relative="1" as="geometry" />
        </mxCell>
        <mxCell id="Ke5rd1nxsrI9M_XZsOlw-9" style="edgeStyle=orthogonalEdgeStyle;rounded=0;orthogonalLoop=1;jettySize=auto;html=1;exitX=0.5;exitY=1;exitDx=0;exitDy=0;endArrow=none;endFill=0;" edge="1" parent="Ke5rd1nxsrI9M_XZsOlw-2" source="Ke5rd1nxsrI9M_XZsOlw-10" target="Ke5rd1nxsrI9M_XZsOlw-13">
          <mxGeometry relative="1" as="geometry" />
        </mxCell>
        <mxCell id="Ke5rd1nxsrI9M_XZsOlw-10" value="電子書" style="ellipse;whiteSpace=wrap;html=1;" vertex="1" parent="Ke5rd1nxsrI9M_XZsOlw-2">
          <mxGeometry x="194" y="120" width="60" height="50" as="geometry" />
        </mxCell>
        <mxCell id="Ke5rd1nxsrI9M_XZsOlw-11" style="edgeStyle=orthogonalEdgeStyle;rounded=0;orthogonalLoop=1;jettySize=auto;html=1;exitX=0;exitY=0.5;exitDx=0;exitDy=0;entryX=1;entryY=0.5;entryDx=0;entryDy=0;endArrow=none;endFill=0;" edge="1" parent="Ke5rd1nxsrI9M_XZsOlw-2" source="Ke5rd1nxsrI9M_XZsOlw-12" target="Ke5rd1nxsrI9M_XZsOlw-16">
          <mxGeometry relative="1" as="geometry" />
        </mxCell>
        <mxCell id="Ke5rd1nxsrI9M_XZsOlw-12" value="租借" style="ellipse;whiteSpace=wrap;html=1;" vertex="1" parent="Ke5rd1nxsrI9M_XZsOlw-2">
          <mxGeometry x="137" y="260" width="54" height="50" as="geometry" />
        </mxCell>
        <mxCell id="Ke5rd1nxsrI9M_XZsOlw-13" value="購買" style="ellipse;whiteSpace=wrap;html=1;" vertex="1" parent="Ke5rd1nxsrI9M_XZsOlw-2">
          <mxGeometry x="251" y="260" width="56" height="50" as="geometry" />
        </mxCell>
        <mxCell id="Ke5rd1nxsrI9M_XZsOlw-14" style="edgeStyle=orthogonalEdgeStyle;rounded=0;orthogonalLoop=1;jettySize=auto;html=1;exitX=1;exitY=0.5;exitDx=0;exitDy=0;entryX=0;entryY=0.5;entryDx=0;entryDy=0;endArrow=none;endFill=0;" edge="1" parent="Ke5rd1nxsrI9M_XZsOlw-2" source="Ke5rd1nxsrI9M_XZsOlw-15" target="Ke5rd1nxsrI9M_XZsOlw-5">
          <mxGeometry relative="1" as="geometry" />
        </mxCell>
        <mxCell id="Ke5rd1nxsrI9M_XZsOlw-15" value="預覽書本" style="ellipse;whiteSpace=wrap;html=1;" vertex="1" parent="Ke5rd1nxsrI9M_XZsOlw-2">
          <mxGeometry x="30" y="40" width="90" height="50" as="geometry" />
        </mxCell>
        <mxCell id="Ke5rd1nxsrI9M_XZsOlw-16" value="返還" style="ellipse;whiteSpace=wrap;html=1;" vertex="1" parent="Ke5rd1nxsrI9M_XZsOlw-2">
          <mxGeometry x="45" y="260" width="54" height="50" as="geometry" />
        </mxCell>
        <mxCell id="Ke5rd1nxsrI9M_XZsOlw-17" style="edgeStyle=orthogonalEdgeStyle;rounded=0;orthogonalLoop=1;jettySize=auto;html=1;exitX=0.5;exitY=0;exitDx=0;exitDy=0;entryX=0.5;entryY=1;entryDx=0;entryDy=0;startArrow=classic;startFill=1;endArrow=none;endFill=0;dashed=1;" edge="1" parent="Ke5rd1nxsrI9M_XZsOlw-2" source="Ke5rd1nxsrI9M_XZsOlw-18" target="Ke5rd1nxsrI9M_XZsOlw-15">
          <mxGeometry relative="1" as="geometry" />
        </mxCell>
        <mxCell id="Ke5rd1nxsrI9M_XZsOlw-18" value="對話式搜索書本" style="ellipse;whiteSpace=wrap;html=1;" vertex="1" parent="Ke5rd1nxsrI9M_XZsOlw-2">
          <mxGeometry x="20" y="190" width="110" height="50" as="geometry" />
        </mxCell>
        <mxCell id="Ke5rd1nxsrI9M_XZsOlw-19" value="&amp;lt;&amp;lt; include &amp;gt;&amp;gt;" style="text;html=1;align=center;verticalAlign=middle;resizable=0;points=[];autosize=1;strokeColor=none;fillColor=none;rotation=90;" vertex="1" parent="Ke5rd1nxsrI9M_XZsOlw-2">
          <mxGeometry x="37" y="120" width="100" height="30" as="geometry" />
        </mxCell>
        <mxCell id="Ke5rd1nxsrI9M_XZsOlw-20" style="edgeStyle=orthogonalEdgeStyle;rounded=0;orthogonalLoop=1;jettySize=auto;html=1;exitX=0;exitY=0.5;exitDx=0;exitDy=0;startArrow=none;startFill=0;endArrow=none;endFill=0;" edge="1" parent="1" source="Ke5rd1nxsrI9M_XZsOlw-15" target="Ke5rd1nxsrI9M_XZsOlw-1">
          <mxGeometry relative="1" as="geometry" />
        </mxCell>
      </root>
    </mxGraphModel>
  </diagram>
</mxfile>
